<?xml version="1.0" encoding="UTF-8" standalone="no"?>
<!DOCTYPE svg PUBLIC "-//W3C//DTD SVG 1.1//EN" "http://www.w3.org/Graphics/SVG/1.1/DTD/svg11.dtd">
<!-- Created with Vectornator (http://vectornator.io/) -->
<svg height="100%" stroke-miterlimit="10" style="fill-rule:nonzero;clip-rule:evenodd;stroke-linecap:round;stroke-linejoin:round;" version="1.1" viewBox="0 0 512 512" width="100%" xml:space="preserve" xmlns="http://www.w3.org/2000/svg" xmlns:vectornator="http://vectornator.io" xmlns:xlink="http://www.w3.org/1999/xlink">
<defs>
<clipPath id="TextBounds">
<rect height="338" width="352.189" x="95.3215" y="103.772"/>
</clipPath>
</defs>
<g id="Untitled" vectornator:layerName="Untitled">
<g opacity="1">
<g opacity="1">
<clipPath id="ClipPath">
<path d="M0 0L512 0L512 512L0 512L0 0Z"/>
</clipPath>
<g clip-path="url(#ClipPath)">
<path d="M512 420C512 469.5 471.5 510 422 510L93 510C43.5 510 3 469.5 3 420L3 94C3 44.5 43.5 4 93 4L422 4C471.5 4 512 44.5 512 94L512 420Z" fill="#403600" fill-rule="nonzero" opacity="1" stroke="none"/>
<path d="M512 420C512 469.5 471.5 510 422 510L93 510C43.5 510 3 469.5 3 420L3 94C3 44.5 43.5 4 93 4L422 4C471.5 4 512 44.5 512 94L512 420Z" fill="none" opacity="1" stroke="#ffd801" stroke-linecap="butt" stroke-linejoin="miter" stroke-width="30"/>
</g>
</g>
<g fill="#ffd801" opacity="1" stroke="none">
<path clip-path="url(#TextBounds)" d="M149.073 266.146L149.073 349.267L182.915 349.267C199.53 349.267 211.377 346.364 218.457 340.558C225.537 334.752 229.077 325.194 229.077 311.884C229.077 294.325 225.349 282.313 217.891 275.846C210.433 269.38 198.775 266.146 182.915 266.146L149.073 266.146ZM149.073 184.867L149.073 242.924L182.349 242.924C196.131 242.924 206.114 240.281 212.298 234.994C218.481 229.708 221.573 223.052 221.573 215.028C221.573 204.361 218.528 196.667 212.439 191.947C206.35 187.227 196.32 184.867 182.349 184.867L149.073 184.867ZM120.327 161.361L182.915 161.361C204.533 161.361 221.195 166.034 232.901 175.38C244.606 184.726 250.459 197.942 250.459 215.028C250.459 224.185 247.368 232.492 241.184 239.95C235.001 247.408 225.726 252.081 213.36 253.969C227.237 256.046 238.116 261.969 245.999 271.74C253.881 281.51 257.823 295.836 257.823 314.716C257.823 333.879 251.545 348.346 238.99 358.117C226.434 367.887 207.743 372.772 182.915 372.772L120.327 372.772L120.327 161.361Z"/>
<path clip-path="url(#TextBounds)" d="M379.033 272.943C386.397 274.831 392.674 278.395 397.866 283.634C403.059 288.873 409.525 299.328 417.266 314.999L446.011 372.772L415.283 372.772L390.078 319.389C382.81 304.19 376.272 294.396 370.467 290.006C364.661 285.617 357.085 283.422 347.74 283.422L320.41 283.422L320.41 372.772L291.665 372.772L291.665 161.361L350.572 161.361C373.794 161.361 391.589 166.601 403.955 177.079C416.322 187.558 422.505 202.709 422.505 222.533C422.505 236.504 418.706 247.903 411.106 256.73C403.507 265.556 392.816 270.961 379.033 272.943ZM320.41 184.867L320.41 259.916L351.704 259.916C365.393 259.916 375.588 256.848 382.29 250.712C388.993 244.576 392.344 235.183 392.344 222.533C392.344 210.355 388.78 201.033 381.653 194.567C374.526 188.1 364.165 184.867 350.572 184.867L320.41 184.867Z"/>
</g>
</g>
</g>
</svg>
